<?xml version="1.0" encoding="UTF-8" standalone="no"?><!DOCTYPE svg PUBLIC "-//W3C//DTD SVG 1.1//EN" "http://www.w3.org/Graphics/SVG/1.1/DTD/svg11.dtd"><!-- Generated by graphviz version 2.40.1 (20161225.0304)
 --><!-- Title: g Pages: 1 --><svg xmlns="http://www.w3.org/2000/svg" xmlns:xlink="http://www.w3.org/1999/xlink" width="134pt" height="332pt" viewBox="0.00 0.00 134.00 332.00">
<g id="graph0" class="graph" transform="scale(1 1) rotate(0) translate(4 328)">
<title>g</title>
<polygon fill="#ffffff" stroke="transparent" points="-4,4 -4,-328 130,-328 130,4 -4,4"/>
<!-- 9410137669054546858 -->
<g id="node1" class="node">
<title>9410137669054546858</title>
<ellipse fill="#ffa500" stroke="#ffa500" cx="63" cy="-18" rx="27" ry="18"/>
<text text-anchor="start" x="58.1427" y="-14.8" font-family="Times,serif" font-weight="bold" font-size="14.00" fill="#000000">z </text>
</g>
<!-- 17152094451422039216 -->
<g id="node2" class="node">
<title>17152094451422039216</title>
<polygon fill="#add8e6" stroke="#add8e6" points="90,-108 36,-108 36,-72 90,-72 90,-108"/>
<text text-anchor="middle" x="63" y="-85.8" font-family="Times,serif" font-size="14.00" fill="#000000">Mul</text>
</g>
<!-- 17152094451422039216&#45;&gt;9410137669054546858 -->
<g id="edge3" class="edge">
<title>17152094451422039216-&gt;9410137669054546858</title>
<path fill="none" stroke="#ff0000" d="M57.0476,-71.8314C56.2856,-64.0125 56.0696,-54.6923 56.3995,-46.0221"/>
<polygon fill="#ff0000" stroke="#ff0000" points="59.9004,-46.1239 57.0727,-35.9134 52.9159,-45.6587 59.9004,-46.1239"/>
</g>
<!-- 17152094451422039216&#45;&gt;9410137669054546858 -->
<g id="edge4" class="edge">
<title>17152094451422039216-&gt;9410137669054546858</title>
<path fill="none" stroke="#0000ff" d="M68.9524,-71.8314C69.7144,-64.0125 69.9304,-54.6923 69.6005,-46.0221"/>
<polygon fill="#0000ff" stroke="#0000ff" points="73.0841,-45.6587 68.9273,-35.9134 66.0996,-46.1239 73.0841,-45.6587"/>
</g>
<!-- 10525245307165156232 -->
<g id="node3" class="node">
<title>10525245307165156232</title>
<ellipse fill="#ffa500" stroke="#ffa500" cx="27" cy="-162" rx="27" ry="18"/>
<text text-anchor="start" x="21.75" y="-158.8" font-family="Times,serif" font-weight="bold" font-size="14.00" fill="#000000">x </text>
</g>
<!-- 10525245307165156232&#45;&gt;17152094451422039216 -->
<g id="edge1" class="edge">
<title>10525245307165156232-&gt;17152094451422039216</title>
<path fill="none" stroke="#ff0000" d="M35.7146,-144.5708C39.8228,-136.3544 44.8196,-126.3608 49.4089,-117.1821"/>
<polygon fill="#ff0000" stroke="#ff0000" points="52.648,-118.5301 53.9897,-108.0206 46.387,-115.3996 52.648,-118.5301"/>
</g>
<!-- 15607753973019822475 -->
<g id="node4" class="node">
<title>15607753973019822475</title>
<ellipse fill="#ffa500" stroke="#ffa500" cx="99" cy="-162" rx="27" ry="18"/>
<text text-anchor="start" x="93.75" y="-158.8" font-family="Times,serif" font-weight="bold" font-size="14.00" fill="#000000">y </text>
</g>
<!-- 15607753973019822475&#45;&gt;17152094451422039216 -->
<g id="edge2" class="edge">
<title>15607753973019822475-&gt;17152094451422039216</title>
<path fill="none" stroke="#0000ff" d="M90.2854,-144.5708C86.1772,-136.3544 81.1804,-126.3608 76.5911,-117.1821"/>
<polygon fill="#0000ff" stroke="#0000ff" points="79.613,-115.3996 72.0103,-108.0206 73.352,-118.5301 79.613,-115.3996"/>
</g>
<!-- 16043992651896957985 -->
<g id="node5" class="node">
<title>16043992651896957985</title>
<polygon fill="#add8e6" stroke="#add8e6" points="126,-252 72,-252 72,-216 126,-216 126,-252"/>
<text text-anchor="middle" x="99" y="-229.8" font-family="Times,serif" font-size="14.00" fill="#000000">Sub</text>
</g>
<!-- 16043992651896957985&#45;&gt;15607753973019822475 -->
<g id="edge7" class="edge">
<title>16043992651896957985-&gt;15607753973019822475</title>
<path fill="none" stroke="#0000ff" d="M99,-215.8314C99,-208.131 99,-198.9743 99,-190.4166"/>
<polygon fill="#0000ff" stroke="#0000ff" points="102.5001,-190.4132 99,-180.4133 95.5001,-190.4133 102.5001,-190.4132"/>
</g>
<!-- 4989887695227667678 -->
<g id="node6" class="node">
<title>4989887695227667678</title>
<polygon fill="#ffa500" stroke="#ffa500" points="54,-298.5442 54,-313.4558 38.1838,-324 15.8162,-324 0,-313.4558 0,-298.5442 15.8162,-288 38.1838,-288 54,-298.5442"/>
<text text-anchor="start" x="21.75" y="-302.8" font-family="Times,serif" font-weight="bold" font-size="14.00" fill="#000000">u </text>
</g>
<!-- 4989887695227667678&#45;&gt;16043992651896957985 -->
<g id="edge5" class="edge">
<title>4989887695227667678-&gt;16043992651896957985</title>
<path fill="none" stroke="#0000ff" d="M42.6229,-290.3771C51.6754,-281.3246 63.2909,-269.7091 73.6239,-259.3761"/>
<polygon fill="#0000ff" stroke="#0000ff" points="76.27,-261.6798 80.8662,-252.1338 71.3202,-256.73 76.27,-261.6798"/>
</g>
<!-- 979941718878025445 -->
<g id="node8" class="node">
<title>979941718878025445</title>
<polygon fill="#add8e6" stroke="#add8e6" points="54,-252 0,-252 0,-216 54,-216 54,-252"/>
<text text-anchor="middle" x="27" y="-229.8" font-family="Times,serif" font-size="14.00" fill="#000000">Add</text>
</g>
<!-- 4989887695227667678&#45;&gt;979941718878025445 -->
<g id="edge8" class="edge">
<title>4989887695227667678-&gt;979941718878025445</title>
<path fill="none" stroke="#ff0000" d="M27,-287.8314C27,-280.131 27,-270.9743 27,-262.4166"/>
<polygon fill="#ff0000" stroke="#ff0000" points="30.5001,-262.4132 27,-252.4133 23.5001,-262.4133 30.5001,-262.4132"/>
</g>
<!-- 13747887082637139357 -->
<g id="node7" class="node">
<title>13747887082637139357</title>
<polygon fill="#ffa500" stroke="#ffa500" points="126,-298.5442 126,-313.4558 110.1838,-324 87.8162,-324 72,-313.4558 72,-298.5442 87.8162,-288 110.1838,-288 126,-298.5442"/>
<text text-anchor="start" x="93.75" y="-302.8" font-family="Times,serif" font-weight="bold" font-size="14.00" fill="#000000">v </text>
</g>
<!-- 13747887082637139357&#45;&gt;16043992651896957985 -->
<g id="edge6" class="edge">
<title>13747887082637139357-&gt;16043992651896957985</title>
<path fill="none" stroke="#000000" d="M99,-287.8314C99,-280.131 99,-270.9743 99,-262.4166"/>
<polygon fill="#000000" stroke="#000000" points="102.5001,-262.4132 99,-252.4133 95.5001,-262.4133 102.5001,-262.4132"/>
</g>
<!-- 13747887082637139357&#45;&gt;979941718878025445 -->
<g id="edge9" class="edge">
<title>13747887082637139357-&gt;979941718878025445</title>
<path fill="none" stroke="#000000" d="M83.3771,-290.3771C74.3246,-281.3246 62.7091,-269.7091 52.3761,-259.3761"/>
<polygon fill="#000000" stroke="#000000" points="54.6798,-256.73 45.1338,-252.1338 49.73,-261.6798 54.6798,-256.73"/>
</g>
<!-- 979941718878025445&#45;&gt;10525245307165156232 -->
<g id="edge10" class="edge">
<title>979941718878025445-&gt;10525245307165156232</title>
<path fill="none" stroke="#ff0000" d="M27,-215.8314C27,-208.131 27,-198.9743 27,-190.4166"/>
<polygon fill="#ff0000" stroke="#ff0000" points="30.5001,-190.4132 27,-180.4133 23.5001,-190.4133 30.5001,-190.4132"/>
</g>
</g>
</svg>